<svg xmlns="http://www.w3.org/2000/svg" width="174.216" height="100.153" viewBox="0 0 174.216 100.153"><defs><style>.a{fill:#1cc422;}.b{fill:#373a3c;}.c{fill:none;stroke:#1cc422;stroke-linecap:round;stroke-linejoin:round;stroke-width:4px;}</style></defs><g transform="translate(-119.714 -47.973)"><path class="a" d="M147.459,46.126a6.436,6.436,0,0,1-3.549-.955,6.056,6.056,0,0,1-2.268-2.667,10.275,10.275,0,0,1,.01-7.865,6.205,6.205,0,0,1,2.268-2.688,7,7,0,0,1,7.077-.01,6.137,6.137,0,0,1,2.268,2.677,9.451,9.451,0,0,1,.788,3.969,9.254,9.254,0,0,1-.788,3.927A6.158,6.158,0,0,1,151,45.171,6.383,6.383,0,0,1,147.459,46.126Zm0-1.365a4.688,4.688,0,0,0,2.7-.777,5,5,0,0,0,1.764-2.184,8.806,8.806,0,0,0,0-6.489,5.068,5.068,0,0,0-1.764-2.194,5.017,5.017,0,0,0-5.4,0A5.058,5.058,0,0,0,143,35.322a8.779,8.779,0,0,0,0,6.478,5,5,0,0,0,1.764,2.184A4.688,4.688,0,0,0,147.459,44.761Zm8.925-9.807h1.47v2.079H158a4.144,4.144,0,0,1,1.417-1.711,3.969,3.969,0,0,1,2.384-.7,4.111,4.111,0,0,1,2.352.651,4,4,0,0,1,1.449,1.753,5.979,5.979,0,0,1,.483,2.425V46h-1.428V39.6a3.593,3.593,0,0,0-.945-2.688,3.624,3.624,0,0,0-4.914.074,3.645,3.645,0,0,0-.945,2.615V46h-1.47ZM171.441,46.1a3.037,3.037,0,0,1-1.69-.378,1.676,1.676,0,0,1-.714-1,6.82,6.82,0,0,1-.158-1.627V30.25h1.449V42.913a7.341,7.341,0,0,0,.074,1.218.956.956,0,0,0,.4.63,1.827,1.827,0,0,0,1.039.231,3.748,3.748,0,0,0,.462-.032,3.331,3.331,0,0,1,.357-.031v1.05A6.207,6.207,0,0,1,171.441,46.1Zm3.339-11.151h1.449V46H174.78Zm.693-2.1a.98.98,0,0,1-.735-.3,1.033,1.033,0,0,1-.294-.745,1.007,1.007,0,0,1,.294-.725,1.039,1.039,0,0,1,1.47,0,1.007,1.007,0,0,1,.294.725,1.033,1.033,0,0,1-.294.745A.98.98,0,0,1,175.473,32.854Zm3.738,2.1h1.47v2.079h.147a4.144,4.144,0,0,1,1.417-1.711,3.969,3.969,0,0,1,2.384-.7,4.111,4.111,0,0,1,2.352.651,4,4,0,0,1,1.449,1.753,5.979,5.979,0,0,1,.483,2.425V46h-1.428V39.6a3.593,3.593,0,0,0-.945-2.688,3.624,3.624,0,0,0-4.914.074,3.645,3.645,0,0,0-.945,2.615V46h-1.47Zm17.073,11.172a4.776,4.776,0,0,1-2.835-.819,4.976,4.976,0,0,1-1.722-2.142,7.163,7.163,0,0,1,0-5.586,4.976,4.976,0,0,1,1.722-2.142,4.776,4.776,0,0,1,2.835-.819,4.484,4.484,0,0,1,3.528,1.491,6.287,6.287,0,0,1,1.323,4.305v.4h-8.526v.147a4.282,4.282,0,0,0,.451,1.922,3.62,3.62,0,0,0,1.292,1.459,3.429,3.429,0,0,0,1.911.546,3.383,3.383,0,0,0,2.016-.6,3.629,3.629,0,0,0,1.26-1.628h1.428a5.159,5.159,0,0,1-1.638,2.478A4.576,4.576,0,0,1,196.284,46.126Zm3.4-6.384a4.387,4.387,0,0,0-1.008-3,3.6,3.6,0,0,0-4.988.168,4.493,4.493,0,0,0-1.04,2.835Z" transform="translate(36 102)"/><path class="b" d="M92.953,21.157H87.6L86.3,25H83.714L89.09,10.3h2.394L96.859,25H94.276Zm-.672-1.974-1.974-5.712H90.2l-1.932,5.712ZM108.094,25h-2.562V23.131h-.126a3.73,3.73,0,0,1-1.25,1.47,3.459,3.459,0,0,1-2.068.609,3.629,3.629,0,0,1-2.331-.7,3.745,3.745,0,0,1-1.239-1.753,6.674,6.674,0,0,1-.357-2.163V13.912H100.7v6.279a3.186,3.186,0,0,0,.63,2.1,2.146,2.146,0,0,0,1.743.756,2.177,2.177,0,0,0,1.827-.809,3.231,3.231,0,0,0,.63-2.048V13.912h2.562Zm5.8-9.093v5.439a6.063,6.063,0,0,0,.074,1.113.855.855,0,0,0,.41.567,2.088,2.088,0,0,0,1.071.21,5.715,5.715,0,0,0,.966-.1v1.785a5.044,5.044,0,0,1-.714.1,10.838,10.838,0,0,1-1.155.063,4.247,4.247,0,0,1-2.142-.42,1.813,1.813,0,0,1-.872-1.071,6.62,6.62,0,0,1-.178-1.7V15.907h-1.932V13.912h1.932V10.3h2.541v3.612h2.52v1.995Zm9.24,9.261a5.093,5.093,0,0,1-2.909-.8,4.928,4.928,0,0,1-1.774-2.1,7.2,7.2,0,0,1,0-5.7,4.916,4.916,0,0,1,1.774-2.111,5.7,5.7,0,0,1,5.817,0,4.856,4.856,0,0,1,1.764,2.1,6.913,6.913,0,0,1,.578,2.835,7.06,7.06,0,0,1-.578,2.856,4.834,4.834,0,0,1-1.764,2.121A5.093,5.093,0,0,1,123.131,25.168Zm0-2.1a2.317,2.317,0,0,0,2.037-1.05,4.564,4.564,0,0,0,.714-2.625,4.514,4.514,0,0,0-.714-2.615,2.526,2.526,0,0,0-4.085,0,4.564,4.564,0,0,0-.7,2.615,4.564,4.564,0,0,0,.714,2.625A2.317,2.317,0,0,0,123.131,23.068Zm11.025,2.1a3.987,3.987,0,0,1-2.415-.735,4.557,4.557,0,0,1-1.533-2.037,7.925,7.925,0,0,1-.525-2.982,6.821,6.821,0,0,1,1.186-4.189,3.917,3.917,0,0,1,3.329-1.585,3.605,3.605,0,0,1,2.289.661,3.919,3.919,0,0,1,1.2,1.46h.168V9.229h2.562V25h-2.562V22.963h-.168a4.369,4.369,0,0,1-1.249,1.523A3.536,3.536,0,0,1,134.156,25.168Zm.9-2.058a2.311,2.311,0,0,0,2.069-1.082,4.691,4.691,0,0,0,.7-2.615,4.588,4.588,0,0,0-.7-2.594,2.558,2.558,0,0,0-4.148,0,4.64,4.64,0,0,0-.693,2.594,4.732,4.732,0,0,0,.693,2.625A2.312,2.312,0,0,0,135.059,23.11Zm7.728-9.2h2.541V25h-2.541Zm1.239-1.953a1.407,1.407,0,0,1-1.05-.431,1.465,1.465,0,0,1,1.05-2.509,1.407,1.407,0,0,1,1.05.431,1.5,1.5,0,0,1,0,2.079A1.407,1.407,0,0,1,144.025,11.959Zm8.589,13.209a5.072,5.072,0,0,1-2.951-.819,4.981,4.981,0,0,1-1.764-2.132,7.145,7.145,0,0,1,0-5.628,4.981,4.981,0,0,1,1.764-2.132,5.072,5.072,0,0,1,2.951-.819,4.719,4.719,0,0,1,3.475,1.26,5.285,5.285,0,0,1,1.523,3.15h-2.478a2.888,2.888,0,0,0-.777-1.669,2.305,2.305,0,0,0-1.722-.641,2.338,2.338,0,0,0-2.1,1.061,4.64,4.64,0,0,0-.693,2.594,4.72,4.72,0,0,0,.693,2.635,2.338,2.338,0,0,0,2.1,1.061,2.292,2.292,0,0,0,1.712-.651,2.907,2.907,0,0,0,.787-1.68h2.478a5.285,5.285,0,0,1-1.523,3.15A4.719,4.719,0,0,1,152.615,25.168ZM159.25,9.376h2.562v6.342h.147a3.676,3.676,0,0,1,1.271-1.47,3.628,3.628,0,0,1,2.132-.609,3.465,3.465,0,0,1,3.087,1.386,5.565,5.565,0,0,1,.945,3.213V25h-2.541V18.637a3.076,3.076,0,0,0-.661-2.111,2.355,2.355,0,0,0-1.859-.746,2.316,2.316,0,0,0-1.827.788,3.017,3.017,0,0,0-.693,2.069V25H159.25ZM171.7,13.912h2.541V25H171.7Zm1.239-1.953a1.407,1.407,0,0,1-1.05-.431,1.465,1.465,0,0,1,1.05-2.509,1.407,1.407,0,0,1,1.05.431,1.5,1.5,0,0,1,0,2.079A1.407,1.407,0,0,1,172.943,11.959Zm7.665,13.209a3.838,3.838,0,0,1-3.276-1.6,6.837,6.837,0,0,1-1.176-4.158,6.778,6.778,0,0,1,1.2-4.189,3.924,3.924,0,0,1,3.318-1.585,3.56,3.56,0,0,1,2.279.661,3.954,3.954,0,0,1,1.187,1.46h.168V13.912h2.562V25H184.3V22.963h-.168A4.26,4.26,0,0,1,182.9,24.5,3.565,3.565,0,0,1,180.607,25.168Zm.9-2.1A2.317,2.317,0,0,0,183.579,22a4.639,4.639,0,0,0,.7-2.6,4.588,4.588,0,0,0-.7-2.594,2.568,2.568,0,0,0-4.158,0,4.694,4.694,0,0,0-.682,2.594,4.692,4.692,0,0,0,.693,2.6A2.312,2.312,0,0,0,181.51,23.068Zm7.6-9.156h2.52v1.764h.147a2.665,2.665,0,0,1,1-1.249,3.135,3.135,0,0,1,1.859-.515,3.37,3.37,0,0,1,.819.105l-.105,2.373a3.091,3.091,0,0,0-.546-.136,4.494,4.494,0,0,0-.588-.031,2.526,2.526,0,0,0-1.932.693,3.325,3.325,0,0,0-.651,2.31V25h-2.52Zm11.235,11.256a3.838,3.838,0,0,1-3.276-1.6,6.837,6.837,0,0,1-1.176-4.158,6.778,6.778,0,0,1,1.2-4.189,3.924,3.924,0,0,1,3.318-1.585,3.56,3.56,0,0,1,2.279.661,3.954,3.954,0,0,1,1.186,1.46h.168V13.912h2.562V25h-2.562V22.963h-.168a4.26,4.26,0,0,1-1.239,1.533A3.565,3.565,0,0,1,200.348,25.168Zm.9-2.1A2.317,2.317,0,0,0,203.319,22a4.639,4.639,0,0,0,.7-2.6,4.588,4.588,0,0,0-.7-2.594,2.568,2.568,0,0,0-4.158,0,4.694,4.694,0,0,0-.682,2.594,4.692,4.692,0,0,0,.693,2.6A2.312,2.312,0,0,0,201.25,23.068Zm7.329-.084,5.733-7.014v-.063h-5.46V13.891h8.19v2.016l-5.712,7.014v.042h5.712V25h-8.463Zm10.437-9.072h2.541V25h-2.541Zm1.239-1.953a1.407,1.407,0,0,1-1.05-.431,1.465,1.465,0,0,1,1.05-2.509,1.407,1.407,0,0,1,1.05.431,1.5,1.5,0,0,1,0,2.079A1.407,1.407,0,0,1,220.256,11.959Zm8.568,13.209a5.093,5.093,0,0,1-2.908-.8,4.928,4.928,0,0,1-1.775-2.1,7.2,7.2,0,0,1,0-5.7,4.916,4.916,0,0,1,1.775-2.111,5.7,5.7,0,0,1,5.817,0,4.856,4.856,0,0,1,1.764,2.1,6.913,6.913,0,0,1,.578,2.835,7.06,7.06,0,0,1-.578,2.856,4.834,4.834,0,0,1-1.764,2.121A5.093,5.093,0,0,1,228.823,25.168Zm0-2.1a2.317,2.317,0,0,0,2.037-1.05,4.564,4.564,0,0,0,.714-2.625,4.514,4.514,0,0,0-.714-2.615,2.526,2.526,0,0,0-4.084,0,4.564,4.564,0,0,0-.7,2.615,4.564,4.564,0,0,0,.714,2.625A2.317,2.317,0,0,0,228.823,23.068Zm6.993-9.156h2.562v1.806h.147a3.676,3.676,0,0,1,1.271-1.47,3.628,3.628,0,0,1,2.132-.609,3.465,3.465,0,0,1,3.087,1.386,5.565,5.565,0,0,1,.945,3.213V25h-2.541V18.637a3.076,3.076,0,0,0-.661-2.111,2.3,2.3,0,0,0-1.816-.746,2.328,2.328,0,0,0-1.9.8,3.118,3.118,0,0,0-.661,2.058V25h-2.562Zm17.073,11.256a4.858,4.858,0,0,1-4.673-2.95,7.145,7.145,0,0,1,0-5.628,4.981,4.981,0,0,1,1.764-2.132,5.034,5.034,0,0,1,2.929-.819,4.705,4.705,0,0,1,3.665,1.491,6.19,6.19,0,0,1,1.354,4.305v.693h-7.812V20.3a2.907,2.907,0,0,0,.347,1.386,2.706,2.706,0,0,0,.966,1.04,2.612,2.612,0,0,0,1.418.389,2.552,2.552,0,0,0,2.478-1.6h2.5a5.038,5.038,0,0,1-1.7,2.625A4.947,4.947,0,0,1,252.889,25.168Zm2.583-6.72a3.158,3.158,0,0,0-.745-2.215,2.485,2.485,0,0,0-1.838-.7,2.511,2.511,0,0,0-1.942.787,3.181,3.181,0,0,0-.767,2.132Z" transform="translate(36 102)"/><g transform="translate(0 12)"><path class="c" d="M-9.266-127.566l5.172,9.218,7.975-17.437" transform="translate(208.052 198.871)"/><path d="M11.674-32.2H-8.95V22.027H30.832v-35.07ZM-8.061,21.138V-31.311H11.052V-12.42H29.943V21.138Zm20-51.827L29.32-13.309H11.941Z" transform="translate(196.059 68.173)"/></g></g></svg>